name Walk7.mot
datacolumns 19
datarows 17
range 3.34500000 3.42500000
endheader

                time	   L_ground_force_vx	   L_ground_force_vy	   L_ground_force_vz	   L_ground_force_px	   L_ground_force_py	   L_ground_force_pz	   R_ground_force_vx	   R_ground_force_vy	   R_ground_force_vz	   R_ground_force_px	   R_ground_force_py	   R_ground_force_pz	   L_ground_torque_x	   L_ground_torque_y	   L_ground_torque_z	   R_ground_torque_x	   R_ground_torque_y	   R_ground_torque_z	
          3.34500000	          0.05908985	          0.15715833	         -0.00145719	         -0.00034549	          0.00000000	         -0.00007122	         -8.47291101	        739.62614749	        -59.22936903	          0.21117482	          0.00000000	          0.15520694	          0.00000000	          0.00010180	          0.00000000	          0.00000000	          9.91692750	          0.00000000	
          3.35000000	          0.04328104	          0.10793018	         -0.00225319	         -0.00029901	          0.00000000	         -0.00006177	         -7.21331136	        735.55150681	        -58.87809789	          0.21244788	          0.00000000	          0.15567694	          0.00000000	          0.00010675	          0.00000000	          0.00000000	          9.56476845	          0.00000000	
          3.35500000	          0.02972015	          0.06782515	         -0.00258545	         -0.00024555	          0.00000000	         -0.00005082	         -5.97314227	        731.58419183	        -58.68586979	          0.21370317	          0.00000000	          0.15613650	          0.00000000	          0.00010148	          0.00000000	          0.00000000	          9.22773159	          0.00000000	
          3.36000000	          0.01867331	          0.03674242	         -0.00259404	         -0.00019185	          0.00000000	         -0.00003978	         -4.75011267	        727.72751714	        -58.62699981	          0.21493631	          0.00000000	          0.15658226	          0.00000000	          0.00009007	          0.00000000	          0.00000000	          8.90641178	          0.00000000	
          3.36500000	          0.01011235	          0.01390379	         -0.00239440	         -0.00014224	          0.00000000	         -0.00002955	         -3.54083784	        724.00747039	        -58.66387954	          0.21614112	          0.00000000	          0.15700925	          0.00000000	          0.00007564	          0.00000000	          0.00000000	          8.60117467	          0.00000000	
          3.37000000	          0.00382261	         -0.00184181	         -0.00207700	         -0.00009917	          0.00000000	         -0.00002066	         -2.34178523	        720.46824558	        -58.75186433	          0.21731083	          0.00000000	          0.15741146	          0.00000000	          0.00006040	          0.00000000	          0.00000000	          8.31228296	          0.00000000	
          3.37500000	         -0.00051320	         -0.01179349	         -0.00170919	         -0.00006371	          0.00000000	         -0.00001332	         -1.15037724	        717.16911744	        -58.84504829	          0.21843844	          0.00000000	          0.15778309	          0.00000000	          0.00004585	          0.00000000	          0.00000000	          8.03965606	          0.00000000	
          3.38000000	         -0.00325308	         -0.01724258	         -0.00133815	         -0.00003594	          0.00000000	         -0.00000756	          0.03520634	        714.17931079	        -58.90135516	          0.21951900	          0.00000000	          0.15812015	          0.00000000	          0.00003289	          0.00000000	          0.00000000	          7.78235234	          0.00000000	
          3.38500000	         -0.00475284	         -0.01937330	         -0.00099437	         -0.00001528	          0.00000000	         -0.00000327	          1.21582907	        711.56913568	        -58.88761749	          0.22055250	          0.00000000	          0.15842056	          0.00000000	          0.00002198	          0.00000000	          0.00000000	          7.53874788	          0.00000000	
          3.39000000	         -0.00533871	         -0.01920750	         -0.00069528	         -0.00000083	          0.00000000	         -0.00000026	          2.39118555	        709.40083990	        -58.78217263	          0.22154283	          0.00000000	          0.15868384	          0.00000000	          0.00001324	          0.00000000	          0.00000000	          7.30680387	          0.00000000	
          3.39500000	         -0.00529219	         -0.01758209	         -0.00044848	          0.00000851	          0.00000000	          0.00000169	          3.56050479	        707.72462172	        -58.57695971	          0.22249615	          0.00000000	          0.15891239	          0.00000000	          0.00000660	          0.00000000	          0.00000000	          7.08407271	          0.00000000	
          3.40000000	         -0.00484381	         -0.01514922	         -0.00025475	          0.00001382	          0.00000000	          0.00000281	          4.72276068	        706.57647961	        -58.28034258	          0.22342085	          0.00000000	          0.15911267	          0.00000000	          0.00000181	          0.00000000	          0.00000000	          6.86826122	          0.00000000	
          3.40500000	         -0.00417319	         -0.01239094	         -0.00011036	          0.00001614	          0.00000000	          0.00000330	          5.87673097	        705.97712843	        -57.91577954	          0.22432752	          0.00000000	          0.15929472	          0.00000000	         -0.00000140	          0.00000000	          0.00000000	          6.65770559	          0.00000000	
          3.41000000	         -0.00341308	         -0.00964214	         -0.00000904	          0.00001634	          0.00000000	          0.00000336	          7.02261821	        705.93087486	        -57.51721520	          0.22522738	          0.00000000	          0.15946977	          0.00000000	         -0.00000335	          0.00000000	          0.00000000	          6.45116416	          0.00000000	
          3.41500000	         -0.00265570	         -0.00711681	          0.00005665	          0.00001518	          0.00000000	          0.00000313	          8.16193134	        706.42642955	        -57.12598465	          0.22613257	          0.00000000	          0.15964888	          0.00000000	         -0.00000434	          0.00000000	          0.00000000	          6.24762099	          0.00000000	
          3.42000000	         -0.00195998	         -0.00493451	          0.00009429	          0.00001324	          0.00000000	          0.00000273	          9.29725510	        707.43633574	        -56.78559777	          0.22705445	          0.00000000	          0.15984239	          0.00000000	         -0.00000462	          0.00000000	          0.00000000	          6.04616889	          0.00000000	
          3.42500000	         -0.00135881	         -0.00314479	          0.00011098	          0.00001095	          0.00000000	          0.00000226	         10.43184078	        708.91892935	        -56.53549994	          0.22800093	          0.00000000	          0.16005863	          0.00000000	         -0.00000444	          0.00000000	          0.00000000	          5.84615392	          0.00000000	
